# xmcd
#
# Track frame offsets:
#	150
#	12010
#	25400
#	38597
#	52102
#	63500
#	77692
#	90032
#	103775
#	119502
#	133500
#	148017
#	164382
#	176557
#	191702
#
# Disc length: 2782
#
# Revision: 6
# Processed by: cddbd v1.5.1PL0 Copyright (c) Steve Scherf et al.
# Submitted via: CDex 1.51
# Normalized: r5:TDELIM( - )
#
DISCID=c40adc0f
DTITLE=Various Artist - Time-Life Classic Country Late 70's
DYEAR=2001
DGENRE=Country
TTITLE0=Johnny Paycheck - Take This Job and Shove it
TTITLE1=Waylon Jennings and Willie Nelson - Good Hearted Woman
TTITLE2=Crystal Gayle - Talking in Your Sleep
TTITLE3=Glen Campbell - Southern Nights
TTITLE4=Dave and Sugar - Golden Tears
TTITLE5=Don Williams - Tulsa Time
TTITLE6=Freddy Fender - Wasted Days and Wasted Nights
TTITLE7=George Jones and Tammy Wynette - Golden Ring
TTITLE8=The Oak Ridge Boys - Sail Away
TTITLE9=Loretta Lynn - She's Got You
TTITLE10=Charley Pride - Burgers and Fries
TTITLE11=Ronnie Milsap - It Was Almost Like a Song
TTITLE12=Charlie Rich - Rollin' with the Flow
TTITLE13=Jessie Colter - I'm Not Lisa
TTITLE14=C. W. McCall - Convoy
EXTD=YEAR: 2001
EXTT0=
EXTT1=
EXTT2=
EXTT3=
EXTT4=
EXTT5=
EXTT6=
EXTT7=
EXTT8=
EXTT9=
EXTT10=
EXTT11=
EXTT12=
EXTT13=
EXTT14=
PLAYORDER=
